<svg xmlns="http://www.w3.org/2000/svg" width="800" height="480" viewBox="0 0 800 480" font-family="system-ui,sans-serif">
<rect width="100%" height="100%" fill="#fafafa"/>
<text x="400" y="24" text-anchor="middle" font-size="16" fill="#222">Density comparison (illustrative; red = code |S|/(d^k), AP-free shell, d=5, k in 3..5)</text>
<polyline fill="none" stroke="#888" stroke-width="2" points="70.0,40.0 73.5,56.5 77.0,71.7 80.6,85.8 84.1,98.9 87.6,111.0 91.1,122.4 94.6,133.0 98.1,142.9 101.7,152.3 105.2,161.1 108.7,169.4 112.2,177.2 115.7,184.7 119.2,191.7 122.8,198.4 126.3,204.8 129.8,210.9 133.3,216.7 136.8,222.2 140.4,227.5 143.9,232.5 147.4,237.4 150.9,242.1 154.4,246.5 157.9,250.8 161.5,255.0 165.0,258.9 168.5,262.8 172.0,266.5 175.5,270.0 179.0,273.5 182.6,276.8 186.1,280.0 189.6,283.1 193.1,286.2 196.6,289.1 200.2,291.9 203.7,294.7 207.2,297.3 210.7,299.9 214.2,302.4 217.7,304.9 221.3,307.3 224.8,309.6 228.3,311.8 231.8,314.0 235.3,316.2 238.8,318.2 242.4,320.3 245.9,322.2 249.4,324.2 252.9,326.1 256.4,327.9 259.9,329.7 263.5,331.5 267.0,333.2 270.5,334.9 274.0,336.5 277.5,338.1 281.1,339.7 284.6,341.2 288.1,342.7 291.6,344.2 295.1,345.6 298.6,347.0 302.2,348.4 305.7,349.8 309.2,351.1 312.7,352.4 316.2,353.7 319.7,355.0 323.3,356.2 326.8,357.4 330.3,358.6 333.8,359.8 337.3,360.9 340.9,362.0 344.4,363.2 347.9,364.2 351.4,365.3 354.9,366.4 358.4,367.4 362.0,368.4 365.5,369.4 369.0,370.4 372.5,371.4 376.0,372.3 379.5,373.3 383.1,374.2 386.6,375.1 390.1,376.0 393.6,376.9 397.1,377.8 400.7,378.6 404.2,379.5 407.7,380.3 411.2,381.1 414.7,381.9 418.2,382.7 421.8,383.5 425.3,384.3 428.8,385.0 432.3,385.8 435.8,386.5 439.3,387.3 442.9,388.0 446.4,388.7 449.9,389.4 453.4,390.1 456.9,390.8 460.5,391.5 464.0,392.1 467.5,392.8 471.0,393.5 474.5,394.1 478.0,394.7 481.6,395.4 485.1,396.0 488.6,396.6 492.1,397.2 495.6,397.8 499.1,398.4 502.7,399.0 506.2,399.6 509.7,400.1 513.2,400.7 516.7,401.3 520.3,401.8 523.8,402.4 527.3,402.9 530.8,403.4 534.3,404.0 537.8,404.5 541.4,405.0 544.9,405.5 548.4,406.0 551.9,406.5 555.4,407.0 558.9,407.5 562.5,408.0 566.0,408.5 569.5,409.0 573.0,409.4 576.5,409.9 580.1,410.4 583.6,410.8 587.1,411.3 590.6,411.7 594.1,412.2 597.6,412.6 601.2,413.0 604.7,413.5 608.2,413.9 611.7,414.3 615.2,414.7 618.7,415.2 622.3,415.6 625.8,416.0 629.3,416.4 632.8,416.8 636.3,417.2 639.8,417.6 643.4,418.0 646.9,418.3 650.4,418.7 653.9,419.1 657.4,419.5 661.0,419.8 664.5,420.2 668.0,420.6 671.5,420.9 675.0,421.3 678.5,421.7 682.1,422.0 685.6,422.4 689.1,422.7 692.6,423.1 696.1,423.4 699.6,423.7 703.2,424.1 706.7,424.4 710.2,424.7 713.7,425.1 717.2,425.4 720.8,425.7 724.3,426.0 727.8,426.4 731.3,426.7 734.8,427.0 738.3,427.3 741.9,427.6 745.4,427.9 748.9,428.2 752.4,428.5 755.9,428.8 759.4,429.1 763.0,429.4 766.5,429.7 770.0,430.0"/>
<polyline fill="none" stroke="#1a5276" stroke-width="2" points="70.0,40.0 73.5,48.2 77.0,56.2 80.6,64.0 84.1,71.5 87.6,78.8 91.1,85.8 94.6,92.7 98.1,99.4 101.7,105.9 105.2,112.2 108.7,118.4 112.2,124.4 115.7,130.2 119.2,135.9 122.8,141.5 126.3,146.9 129.8,152.2 133.3,157.3 136.8,162.3 140.4,167.2 143.9,172.0 147.4,176.7 150.9,181.3 154.4,185.7 157.9,190.1 161.5,194.3 165.0,198.5 168.5,202.6 172.0,206.6 175.5,210.5 179.0,214.3 182.6,218.0 186.1,221.7 189.6,225.3 193.1,228.8 196.6,232.2 200.2,235.6 203.7,238.9 207.2,242.1 210.7,245.3 214.2,248.4 217.7,251.5 221.3,254.5 224.8,257.4 228.3,260.3 231.8,263.1 235.3,265.9 238.8,268.6 242.4,271.3 245.9,273.9 249.4,276.5 252.9,279.0 256.4,281.5 259.9,283.9 263.5,286.3 267.0,288.7 270.5,291.0 274.0,293.2 277.5,295.5 281.1,297.7 284.6,299.8 288.1,302.0 291.6,304.1 295.1,306.1 298.6,308.1 302.2,310.1 305.7,312.1 309.2,314.0 312.7,315.9 316.2,317.7 319.7,319.6 323.3,321.4 326.8,323.2 330.3,324.9 333.8,326.6 337.3,328.3 340.9,330.0 344.4,331.6 347.9,333.2 351.4,334.8 354.9,336.4 358.4,337.9 362.0,339.5 365.5,341.0 369.0,342.4 372.5,343.9 376.0,345.3 379.5,346.7 383.1,348.1 386.6,349.5 390.1,350.9 393.6,352.2 397.1,353.5 400.7,354.8 404.2,356.1 407.7,357.3 411.2,358.6 414.7,359.8 418.2,361.0 421.8,362.2 425.3,363.4 428.8,364.5 432.3,365.7 435.8,366.8 439.3,367.9 442.9,369.0 446.4,370.1 449.9,371.2 453.4,372.2 456.9,373.3 460.5,374.3 464.0,375.3 467.5,376.3 471.0,377.3 474.5,378.3 478.0,379.3 481.6,380.2 485.1,381.2 488.6,382.1 492.1,383.0 495.6,383.9 499.1,384.8 502.7,385.7 506.2,386.5 509.7,387.4 513.2,388.3 516.7,389.1 520.3,389.9 523.8,390.7 527.3,391.5 530.8,392.3 534.3,393.1 537.8,393.9 541.4,394.7 544.9,395.4 548.4,396.2 551.9,396.9 555.4,397.7 558.9,398.4 562.5,399.1 566.0,399.8 569.5,400.5 573.0,401.2 576.5,401.9 580.1,402.6 583.6,403.3 587.1,403.9 590.6,404.6 594.1,405.2 597.6,405.9 601.2,406.5 604.7,407.1 608.2,407.7 611.7,408.3 615.2,408.9 618.7,409.5 622.3,410.1 625.8,410.7 629.3,411.3 632.8,411.9 636.3,412.4 639.8,413.0 643.4,413.5 646.9,414.1 650.4,414.6 653.9,415.2 657.4,415.7 661.0,416.2 664.5,416.7 668.0,417.2 671.5,417.7 675.0,418.3 678.5,418.7 682.1,419.2 685.6,419.7 689.1,420.2 692.6,420.7 696.1,421.2 699.6,421.6 703.2,422.1 706.7,422.5 710.2,423.0 713.7,423.4 717.2,423.9 720.8,424.3 724.3,424.7 727.8,425.2 731.3,425.6 734.8,426.0 738.3,426.4 741.9,426.8 745.4,427.3 748.9,427.7 752.4,428.1 755.9,428.5 759.4,428.8 763.0,429.2 766.5,429.6 770.0,430.0"/>
<circle cx="223.6" cy="40.0" r="5" fill="#c0392b"/>
<circle cx="321.4" cy="149.2" r="5" fill="#c0392b"/>
<circle cx="419.3" cy="320.8" r="5" fill="#c0392b"/>
<text x="70" y="468" font-size="11" fill="#555">x-axis: log N</text>
<text x="600" y="60" font-size="11" fill="#888">gray: 1/log log N (norm.)</text>
<text x="600" y="76" font-size="11" fill="#1a5276">blue: exp(-(log N)^0.5) (norm.)</text>
</svg>