<svg xmlns="http://www.w3.org/2000/svg" width="848" height="480" viewBox="0 0 848 480" font-family="system-ui,sans-serif">
<desc>Side-by-side occupancy: Bernoulli noise vs paper lift x+2y in S</desc>
<rect width="100%" height="100%" fill="#eceff4"/>
<g shape-rendering="crispEdges">
<text x="220" y="44" text-anchor="middle" fill="#2e3440" font-size="12">random Bernoulli(p), p=0.0125 (same density as right)</text>
<rect x="24" y="56" width="391" height="6" fill="#d8dee9" stroke="#b9c3d6" stroke-width="0.25"/>
<rect x="24" y="63" width="314" height="6" fill="#d8dee9" stroke="#b9c3d6" stroke-width="0.25"/>
<rect x="339" y="63" width="6" height="6" fill="#bf616a" stroke="#b9c3d6" stroke-width="0.25"/>
<rect x="346" y="63" width="69" height="6" fill="#d8dee9" stroke="#b9c3d6" stroke-width="0.25"/>
<rect x="24" y="70" width="391" height="6" fill="#d8dee9" stroke="#b9c3d6" stroke-width="0.25"/>
<rect x="24" y="77" width="6" height="6" fill="#d8dee9" stroke="#b9c3d6" stroke-width="0.25"/>
<rect x="31" y="77" width="6" height="6" fill="#bf616a" stroke="#b9c3d6" stroke-width="0.25"/>
<rect x="38" y="77" width="377" height="6" fill="#d8dee9" stroke="#b9c3d6" stroke-width="0.25"/>
<rect x="24" y="84" width="328" height="6" fill="#d8dee9" stroke="#b9c3d6" stroke-width="0.25"/>
<rect x="353" y="84" width="6" height="6" fill="#bf616a" stroke="#b9c3d6" stroke-width="0.25"/>
<rect x="360" y="84" width="55" height="6" fill="#d8dee9" stroke="#b9c3d6" stroke-width="0.25"/>
<rect x="24" y="91" width="6" height="6" fill="#bf616a" stroke="#b9c3d6" stroke-width="0.25"/>
<rect x="31" y="91" width="384" height="6" fill="#d8dee9" stroke="#b9c3d6" stroke-width="0.25"/>
<rect x="24" y="98" width="48" height="6" fill="#d8dee9" stroke="#b9c3d6" stroke-width="0.25"/>
<rect x="73" y="98" width="6" height="6" fill="#bf616a" stroke="#b9c3d6" stroke-width="0.25"/>
<rect x="80" y="98" width="27" height="6" fill="#d8dee9" stroke="#b9c3d6" stroke-width="0.25"/>
<rect x="108" y="98" width="6" height="6" fill="#bf616a" stroke="#b9c3d6" stroke-width="0.25"/>
<rect x="115" y="98" width="230" height="6" fill="#d8dee9" stroke="#b9c3d6" stroke-width="0.25"/>
<rect x="346" y="98" width="6" height="6" fill="#bf616a" stroke="#b9c3d6" stroke-width="0.25"/>
<rect x="353" y="98" width="62" height="6" fill="#d8dee9" stroke="#b9c3d6" stroke-width="0.25"/>
<rect x="24" y="105" width="286" height="6" fill="#d8dee9" stroke="#b9c3d6" stroke-width="0.25"/>
<rect x="311" y="105" width="6" height="6" fill="#bf616a" stroke="#b9c3d6" stroke-width="0.25"/>
<rect x="318" y="105" width="97" height="6" fill="#d8dee9" stroke="#b9c3d6" stroke-width="0.25"/>
<rect x="24" y="112" width="307" height="6" fill="#d8dee9" stroke="#b9c3d6" stroke-width="0.25"/>
<rect x="332" y="112" width="6" height="6" fill="#bf616a" stroke="#b9c3d6" stroke-width="0.25"/>
<rect x="339" y="112" width="76" height="6" fill="#d8dee9" stroke="#b9c3d6" stroke-width="0.25"/>
<rect x="24" y="119" width="307" height="6" fill="#d8dee9" stroke="#b9c3d6" stroke-width="0.25"/>
<rect x="332" y="119" width="6" height="6" fill="#bf616a" stroke="#b9c3d6" stroke-width="0.25"/>
<rect x="339" y="119" width="76" height="6" fill="#d8dee9" stroke="#b9c3d6" stroke-width="0.25"/>
<rect x="24" y="126" width="125" height="6" fill="#d8dee9" stroke="#b9c3d6" stroke-width="0.25"/>
<rect x="150" y="126" width="6" height="6" fill="#bf616a" stroke="#b9c3d6" stroke-width="0.25"/>
<rect x="157" y="126" width="258" height="6" fill="#d8dee9" stroke="#b9c3d6" stroke-width="0.25"/>
<rect x="24" y="133" width="62" height="6" fill="#d8dee9" stroke="#b9c3d6" stroke-width="0.25"/>
<rect x="87" y="133" width="6" height="6" fill="#bf616a" stroke="#b9c3d6" stroke-width="0.25"/>
<rect x="94" y="133" width="20" height="6" fill="#d8dee9" stroke="#b9c3d6" stroke-width="0.25"/>
<rect x="115" y="133" width="6" height="6" fill="#bf616a" stroke="#b9c3d6" stroke-width="0.25"/>
<rect x="122" y="133" width="293" height="6" fill="#d8dee9" stroke="#b9c3d6" stroke-width="0.25"/>
<rect x="24" y="140" width="391" height="6" fill="#d8dee9" stroke="#b9c3d6" stroke-width="0.25"/>
<rect x="24" y="147" width="391" height="6" fill="#d8dee9" stroke="#b9c3d6" stroke-width="0.25"/>
<rect x="24" y="154" width="34" height="6" fill="#d8dee9" stroke="#b9c3d6" stroke-width="0.25"/>
<rect x="59" y="154" width="6" height="6" fill="#bf616a" stroke="#b9c3d6" stroke-width="0.25"/>
<rect x="66" y="154" width="349" height="6" fill="#d8dee9" stroke="#b9c3d6" stroke-width="0.25"/>
<rect x="24" y="161" width="13" height="6" fill="#d8dee9" stroke="#b9c3d6" stroke-width="0.25"/>
<rect x="38" y="161" width="6" height="6" fill="#bf616a" stroke="#b9c3d6" stroke-width="0.25"/>
<rect x="45" y="161" width="370" height="6" fill="#d8dee9" stroke="#b9c3d6" stroke-width="0.25"/>
<rect x="24" y="168" width="216" height="6" fill="#d8dee9" stroke="#b9c3d6" stroke-width="0.25"/>
<rect x="241" y="168" width="6" height="6" fill="#bf616a" stroke="#b9c3d6" stroke-width="0.25"/>
<rect x="248" y="168" width="167" height="6" fill="#d8dee9" stroke="#b9c3d6" stroke-width="0.25"/>
<rect x="24" y="175" width="6" height="6" fill="#bf616a" stroke="#b9c3d6" stroke-width="0.25"/>
<rect x="31" y="175" width="167" height="6" fill="#d8dee9" stroke="#b9c3d6" stroke-width="0.25"/>
<rect x="199" y="175" width="6" height="6" fill="#bf616a" stroke="#b9c3d6" stroke-width="0.25"/>
<rect x="206" y="175" width="209" height="6" fill="#d8dee9" stroke="#b9c3d6" stroke-width="0.25"/>
<rect x="24" y="182" width="13" height="6" fill="#d8dee9" stroke="#b9c3d6" stroke-width="0.25"/>
<rect x="38" y="182" width="6" height="6" fill="#bf616a" stroke="#b9c3d6" stroke-width="0.25"/>
<rect x="45" y="182" width="83" height="6" fill="#d8dee9" stroke="#b9c3d6" stroke-width="0.25"/>
<rect x="129" y="182" width="6" height="6" fill="#bf616a" stroke="#b9c3d6" stroke-width="0.25"/>
<rect x="136" y="182" width="279" height="6" fill="#d8dee9" stroke="#b9c3d6" stroke-width="0.25"/>
<rect x="24" y="189" width="391" height="6" fill="#d8dee9" stroke="#b9c3d6" stroke-width="0.25"/>
<rect x="24" y="196" width="328" height="6" fill="#d8dee9" stroke="#b9c3d6" stroke-width="0.25"/>
<rect x="353" y="196" width="6" height="6" fill="#bf616a" stroke="#b9c3d6" stroke-width="0.25"/>
<rect x="360" y="196" width="55" height="6" fill="#d8dee9" stroke="#b9c3d6" stroke-width="0.25"/>
<rect x="24" y="203" width="391" height="6" fill="#d8dee9" stroke="#b9c3d6" stroke-width="0.25"/>
<rect x="24" y="210" width="391" height="6" fill="#d8dee9" stroke="#b9c3d6" stroke-width="0.25"/>
<rect x="24" y="217" width="391" height="6" fill="#d8dee9" stroke="#b9c3d6" stroke-width="0.25"/>
<rect x="24" y="224" width="391" height="6" fill="#d8dee9" stroke="#b9c3d6" stroke-width="0.25"/>
<rect x="24" y="231" width="391" height="6" fill="#d8dee9" stroke="#b9c3d6" stroke-width="0.25"/>
<rect x="24" y="238" width="328" height="6" fill="#d8dee9" stroke="#b9c3d6" stroke-width="0.25"/>
<rect x="353" y="238" width="6" height="6" fill="#bf616a" stroke="#b9c3d6" stroke-width="0.25"/>
<rect x="360" y="238" width="55" height="6" fill="#d8dee9" stroke="#b9c3d6" stroke-width="0.25"/>
<rect x="24" y="245" width="6" height="6" fill="#bf616a" stroke="#b9c3d6" stroke-width="0.25"/>
<rect x="31" y="245" width="335" height="6" fill="#d8dee9" stroke="#b9c3d6" stroke-width="0.25"/>
<rect x="367" y="245" width="6" height="6" fill="#bf616a" stroke="#b9c3d6" stroke-width="0.25"/>
<rect x="374" y="245" width="41" height="6" fill="#d8dee9" stroke="#b9c3d6" stroke-width="0.25"/>
<rect x="24" y="252" width="391" height="6" fill="#d8dee9" stroke="#b9c3d6" stroke-width="0.25"/>
<rect x="24" y="259" width="391" height="6" fill="#d8dee9" stroke="#b9c3d6" stroke-width="0.25"/>
<rect x="24" y="266" width="391" height="6" fill="#d8dee9" stroke="#b9c3d6" stroke-width="0.25"/>
<rect x="24" y="273" width="391" height="6" fill="#d8dee9" stroke="#b9c3d6" stroke-width="0.25"/>
<rect x="24" y="280" width="391" height="6" fill="#d8dee9" stroke="#b9c3d6" stroke-width="0.25"/>
<rect x="24" y="287" width="391" height="6" fill="#d8dee9" stroke="#b9c3d6" stroke-width="0.25"/>
<rect x="24" y="294" width="391" height="6" fill="#d8dee9" stroke="#b9c3d6" stroke-width="0.25"/>
<rect x="24" y="301" width="391" height="6" fill="#d8dee9" stroke="#b9c3d6" stroke-width="0.25"/>
<rect x="24" y="308" width="391" height="6" fill="#d8dee9" stroke="#b9c3d6" stroke-width="0.25"/>
<rect x="24" y="315" width="391" height="6" fill="#d8dee9" stroke="#b9c3d6" stroke-width="0.25"/>
<rect x="24" y="322" width="391" height="6" fill="#d8dee9" stroke="#b9c3d6" stroke-width="0.25"/>
<rect x="24" y="329" width="391" height="6" fill="#d8dee9" stroke="#b9c3d6" stroke-width="0.25"/>
<rect x="24" y="336" width="391" height="6" fill="#d8dee9" stroke="#b9c3d6" stroke-width="0.25"/>
<rect x="24" y="343" width="391" height="6" fill="#d8dee9" stroke="#b9c3d6" stroke-width="0.25"/>
<rect x="24" y="350" width="391" height="6" fill="#d8dee9" stroke="#b9c3d6" stroke-width="0.25"/>
<rect x="24" y="357" width="272" height="6" fill="#d8dee9" stroke="#b9c3d6" stroke-width="0.25"/>
<rect x="297" y="357" width="6" height="6" fill="#bf616a" stroke="#b9c3d6" stroke-width="0.25"/>
<rect x="304" y="357" width="111" height="6" fill="#d8dee9" stroke="#b9c3d6" stroke-width="0.25"/>
<rect x="24" y="364" width="132" height="6" fill="#d8dee9" stroke="#b9c3d6" stroke-width="0.25"/>
<rect x="157" y="364" width="6" height="6" fill="#bf616a" stroke="#b9c3d6" stroke-width="0.25"/>
<rect x="164" y="364" width="209" height="6" fill="#d8dee9" stroke="#b9c3d6" stroke-width="0.25"/>
<rect x="374" y="364" width="6" height="6" fill="#bf616a" stroke="#b9c3d6" stroke-width="0.25"/>
<rect x="381" y="364" width="34" height="6" fill="#d8dee9" stroke="#b9c3d6" stroke-width="0.25"/>
<rect x="24" y="371" width="300" height="6" fill="#d8dee9" stroke="#b9c3d6" stroke-width="0.25"/>
<rect x="325" y="371" width="6" height="6" fill="#bf616a" stroke="#b9c3d6" stroke-width="0.25"/>
<rect x="332" y="371" width="83" height="6" fill="#d8dee9" stroke="#b9c3d6" stroke-width="0.25"/>
<rect x="24" y="378" width="391" height="6" fill="#d8dee9" stroke="#b9c3d6" stroke-width="0.25"/>
<rect x="24" y="385" width="244" height="6" fill="#d8dee9" stroke="#b9c3d6" stroke-width="0.25"/>
<rect x="269" y="385" width="6" height="6" fill="#bf616a" stroke="#b9c3d6" stroke-width="0.25"/>
<rect x="276" y="385" width="139" height="6" fill="#d8dee9" stroke="#b9c3d6" stroke-width="0.25"/>
<rect x="24" y="392" width="83" height="6" fill="#d8dee9" stroke="#b9c3d6" stroke-width="0.25"/>
<rect x="108" y="392" width="6" height="6" fill="#bf616a" stroke="#b9c3d6" stroke-width="0.25"/>
<rect x="115" y="392" width="6" height="6" fill="#d8dee9" stroke="#b9c3d6" stroke-width="0.25"/>
<rect x="122" y="392" width="6" height="6" fill="#bf616a" stroke="#b9c3d6" stroke-width="0.25"/>
<rect x="129" y="392" width="286" height="6" fill="#d8dee9" stroke="#b9c3d6" stroke-width="0.25"/>
<rect x="24" y="399" width="174" height="6" fill="#d8dee9" stroke="#b9c3d6" stroke-width="0.25"/>
<rect x="199" y="399" width="6" height="6" fill="#bf616a" stroke="#b9c3d6" stroke-width="0.25"/>
<rect x="206" y="399" width="153" height="6" fill="#d8dee9" stroke="#b9c3d6" stroke-width="0.25"/>
<rect x="360" y="399" width="6" height="6" fill="#bf616a" stroke="#b9c3d6" stroke-width="0.25"/>
<rect x="367" y="399" width="48" height="6" fill="#d8dee9" stroke="#b9c3d6" stroke-width="0.25"/>
<rect x="24" y="406" width="6" height="6" fill="#bf616a" stroke="#b9c3d6" stroke-width="0.25"/>
<rect x="31" y="406" width="384" height="6" fill="#d8dee9" stroke="#b9c3d6" stroke-width="0.25"/>
<rect x="24" y="413" width="391" height="6" fill="#d8dee9" stroke="#b9c3d6" stroke-width="0.25"/>
<rect x="24" y="420" width="160" height="6" fill="#d8dee9" stroke="#b9c3d6" stroke-width="0.25"/>
<rect x="185" y="420" width="6" height="6" fill="#bf616a" stroke="#b9c3d6" stroke-width="0.25"/>
<rect x="192" y="420" width="6" height="6" fill="#d8dee9" stroke="#b9c3d6" stroke-width="0.25"/>
<rect x="199" y="420" width="6" height="6" fill="#bf616a" stroke="#b9c3d6" stroke-width="0.25"/>
<rect x="206" y="420" width="202" height="6" fill="#d8dee9" stroke="#b9c3d6" stroke-width="0.25"/>
<rect x="409" y="420" width="6" height="6" fill="#bf616a" stroke="#b9c3d6" stroke-width="0.25"/>
<rect x="24" y="427" width="391" height="6" fill="#d8dee9" stroke="#b9c3d6" stroke-width="0.25"/>
<rect x="24" y="434" width="265" height="6" fill="#d8dee9" stroke="#b9c3d6" stroke-width="0.25"/>
<rect x="290" y="434" width="6" height="6" fill="#bf616a" stroke="#b9c3d6" stroke-width="0.25"/>
<rect x="297" y="434" width="118" height="6" fill="#d8dee9" stroke="#b9c3d6" stroke-width="0.25"/>
<rect x="24" y="441" width="62" height="6" fill="#d8dee9" stroke="#b9c3d6" stroke-width="0.25"/>
<rect x="87" y="441" width="13" height="6" fill="#bf616a" stroke="#b9c3d6" stroke-width="0.25"/>
<rect x="101" y="441" width="41" height="6" fill="#d8dee9" stroke="#b9c3d6" stroke-width="0.25"/>
<rect x="143" y="441" width="6" height="6" fill="#bf616a" stroke="#b9c3d6" stroke-width="0.25"/>
<rect x="150" y="441" width="20" height="6" fill="#d8dee9" stroke="#b9c3d6" stroke-width="0.25"/>
<rect x="171" y="441" width="6" height="6" fill="#bf616a" stroke="#b9c3d6" stroke-width="0.25"/>
<rect x="178" y="441" width="237" height="6" fill="#d8dee9" stroke="#b9c3d6" stroke-width="0.25"/>
<text x="628" y="44" text-anchor="middle" fill="#2e3440" font-size="12">paper lift (|A|=7633, |S|=36, grid n=781; display 56x56)</text>
<rect x="432" y="56" width="125" height="6" fill="#d8dee9" stroke="#b9c3d6" stroke-width="0.25"/>
<rect x="558" y="56" width="41" height="6" fill="#bf616a" stroke="#b9c3d6" stroke-width="0.25"/>
<rect x="600" y="56" width="223" height="6" fill="#d8dee9" stroke="#b9c3d6" stroke-width="0.25"/>
<rect x="432" y="63" width="111" height="6" fill="#d8dee9" stroke="#b9c3d6" stroke-width="0.25"/>
<rect x="544" y="63" width="41" height="6" fill="#bf616a" stroke="#b9c3d6" stroke-width="0.25"/>
<rect x="586" y="63" width="237" height="6" fill="#d8dee9" stroke="#b9c3d6" stroke-width="0.25"/>
<rect x="432" y="70" width="97" height="6" fill="#d8dee9" stroke="#b9c3d6" stroke-width="0.25"/>
<rect x="530" y="70" width="41" height="6" fill="#bf616a" stroke="#b9c3d6" stroke-width="0.25"/>
<rect x="572" y="70" width="251" height="6" fill="#d8dee9" stroke="#b9c3d6" stroke-width="0.25"/>
<rect x="432" y="77" width="83" height="6" fill="#d8dee9" stroke="#b9c3d6" stroke-width="0.25"/>
<rect x="516" y="77" width="41" height="6" fill="#bf616a" stroke="#b9c3d6" stroke-width="0.25"/>
<rect x="558" y="77" width="265" height="6" fill="#d8dee9" stroke="#b9c3d6" stroke-width="0.25"/>
<rect x="432" y="84" width="69" height="6" fill="#d8dee9" stroke="#b9c3d6" stroke-width="0.25"/>
<rect x="502" y="84" width="41" height="6" fill="#bf616a" stroke="#b9c3d6" stroke-width="0.25"/>
<rect x="544" y="84" width="279" height="6" fill="#d8dee9" stroke="#b9c3d6" stroke-width="0.25"/>
<rect x="432" y="91" width="55" height="6" fill="#d8dee9" stroke="#b9c3d6" stroke-width="0.25"/>
<rect x="488" y="91" width="41" height="6" fill="#bf616a" stroke="#b9c3d6" stroke-width="0.25"/>
<rect x="530" y="91" width="293" height="6" fill="#d8dee9" stroke="#b9c3d6" stroke-width="0.25"/>
<rect x="432" y="98" width="41" height="6" fill="#d8dee9" stroke="#b9c3d6" stroke-width="0.25"/>
<rect x="474" y="98" width="41" height="6" fill="#bf616a" stroke="#b9c3d6" stroke-width="0.25"/>
<rect x="516" y="98" width="307" height="6" fill="#d8dee9" stroke="#b9c3d6" stroke-width="0.25"/>
<rect x="432" y="105" width="27" height="6" fill="#d8dee9" stroke="#b9c3d6" stroke-width="0.25"/>
<rect x="460" y="105" width="41" height="6" fill="#bf616a" stroke="#b9c3d6" stroke-width="0.25"/>
<rect x="502" y="105" width="321" height="6" fill="#d8dee9" stroke="#b9c3d6" stroke-width="0.25"/>
<rect x="432" y="112" width="13" height="6" fill="#d8dee9" stroke="#b9c3d6" stroke-width="0.25"/>
<rect x="446" y="112" width="41" height="6" fill="#bf616a" stroke="#b9c3d6" stroke-width="0.25"/>
<rect x="488" y="112" width="335" height="6" fill="#d8dee9" stroke="#b9c3d6" stroke-width="0.25"/>
<rect x="432" y="119" width="41" height="6" fill="#bf616a" stroke="#b9c3d6" stroke-width="0.25"/>
<rect x="474" y="119" width="349" height="6" fill="#d8dee9" stroke="#b9c3d6" stroke-width="0.25"/>
<rect x="432" y="126" width="27" height="6" fill="#bf616a" stroke="#b9c3d6" stroke-width="0.25"/>
<rect x="460" y="126" width="363" height="6" fill="#d8dee9" stroke="#b9c3d6" stroke-width="0.25"/>
<rect x="432" y="133" width="13" height="6" fill="#bf616a" stroke="#b9c3d6" stroke-width="0.25"/>
<rect x="446" y="133" width="377" height="6" fill="#d8dee9" stroke="#b9c3d6" stroke-width="0.25"/>
<rect x="432" y="140" width="391" height="6" fill="#d8dee9" stroke="#b9c3d6" stroke-width="0.25"/>
<rect x="432" y="147" width="391" height="6" fill="#d8dee9" stroke="#b9c3d6" stroke-width="0.25"/>
<rect x="432" y="154" width="391" height="6" fill="#d8dee9" stroke="#b9c3d6" stroke-width="0.25"/>
<rect x="432" y="161" width="391" height="6" fill="#d8dee9" stroke="#b9c3d6" stroke-width="0.25"/>
<rect x="432" y="168" width="391" height="6" fill="#d8dee9" stroke="#b9c3d6" stroke-width="0.25"/>
<rect x="432" y="175" width="377" height="6" fill="#d8dee9" stroke="#b9c3d6" stroke-width="0.25"/>
<rect x="810" y="175" width="13" height="6" fill="#bf616a" stroke="#b9c3d6" stroke-width="0.25"/>
<rect x="432" y="182" width="363" height="6" fill="#d8dee9" stroke="#b9c3d6" stroke-width="0.25"/>
<rect x="796" y="182" width="27" height="6" fill="#bf616a" stroke="#b9c3d6" stroke-width="0.25"/>
<rect x="432" y="189" width="349" height="6" fill="#d8dee9" stroke="#b9c3d6" stroke-width="0.25"/>
<rect x="782" y="189" width="41" height="6" fill="#bf616a" stroke="#b9c3d6" stroke-width="0.25"/>
<rect x="432" y="196" width="335" height="6" fill="#d8dee9" stroke="#b9c3d6" stroke-width="0.25"/>
<rect x="768" y="196" width="55" height="6" fill="#bf616a" stroke="#b9c3d6" stroke-width="0.25"/>
<rect x="432" y="203" width="321" height="6" fill="#d8dee9" stroke="#b9c3d6" stroke-width="0.25"/>
<rect x="754" y="203" width="69" height="6" fill="#bf616a" stroke="#b9c3d6" stroke-width="0.25"/>
<rect x="432" y="210" width="307" height="6" fill="#d8dee9" stroke="#b9c3d6" stroke-width="0.25"/>
<rect x="740" y="210" width="69" height="6" fill="#bf616a" stroke="#b9c3d6" stroke-width="0.25"/>
<rect x="810" y="210" width="13" height="6" fill="#d8dee9" stroke="#b9c3d6" stroke-width="0.25"/>
<rect x="432" y="217" width="293" height="6" fill="#d8dee9" stroke="#b9c3d6" stroke-width="0.25"/>
<rect x="726" y="217" width="69" height="6" fill="#bf616a" stroke="#b9c3d6" stroke-width="0.25"/>
<rect x="796" y="217" width="27" height="6" fill="#d8dee9" stroke="#b9c3d6" stroke-width="0.25"/>
<rect x="432" y="224" width="279" height="6" fill="#d8dee9" stroke="#b9c3d6" stroke-width="0.25"/>
<rect x="712" y="224" width="69" height="6" fill="#bf616a" stroke="#b9c3d6" stroke-width="0.25"/>
<rect x="782" y="224" width="41" height="6" fill="#d8dee9" stroke="#b9c3d6" stroke-width="0.25"/>
<rect x="432" y="231" width="265" height="6" fill="#d8dee9" stroke="#b9c3d6" stroke-width="0.25"/>
<rect x="698" y="231" width="69" height="6" fill="#bf616a" stroke="#b9c3d6" stroke-width="0.25"/>
<rect x="768" y="231" width="55" height="6" fill="#d8dee9" stroke="#b9c3d6" stroke-width="0.25"/>
<rect x="432" y="238" width="251" height="6" fill="#d8dee9" stroke="#b9c3d6" stroke-width="0.25"/>
<rect x="684" y="238" width="69" height="6" fill="#bf616a" stroke="#b9c3d6" stroke-width="0.25"/>
<rect x="754" y="238" width="69" height="6" fill="#d8dee9" stroke="#b9c3d6" stroke-width="0.25"/>
<rect x="432" y="245" width="237" height="6" fill="#d8dee9" stroke="#b9c3d6" stroke-width="0.25"/>
<rect x="670" y="245" width="69" height="6" fill="#bf616a" stroke="#b9c3d6" stroke-width="0.25"/>
<rect x="740" y="245" width="76" height="6" fill="#d8dee9" stroke="#b9c3d6" stroke-width="0.25"/>
<rect x="817" y="245" width="6" height="6" fill="#bf616a" stroke="#b9c3d6" stroke-width="0.25"/>
<rect x="432" y="252" width="223" height="6" fill="#d8dee9" stroke="#b9c3d6" stroke-width="0.25"/>
<rect x="656" y="252" width="69" height="6" fill="#bf616a" stroke="#b9c3d6" stroke-width="0.25"/>
<rect x="726" y="252" width="76" height="6" fill="#d8dee9" stroke="#b9c3d6" stroke-width="0.25"/>
<rect x="803" y="252" width="20" height="6" fill="#bf616a" stroke="#b9c3d6" stroke-width="0.25"/>
<rect x="432" y="259" width="209" height="6" fill="#d8dee9" stroke="#b9c3d6" stroke-width="0.25"/>
<rect x="642" y="259" width="69" height="6" fill="#bf616a" stroke="#b9c3d6" stroke-width="0.25"/>
<rect x="712" y="259" width="76" height="6" fill="#d8dee9" stroke="#b9c3d6" stroke-width="0.25"/>
<rect x="789" y="259" width="20" height="6" fill="#bf616a" stroke="#b9c3d6" stroke-width="0.25"/>
<rect x="810" y="259" width="13" height="6" fill="#d8dee9" stroke="#b9c3d6" stroke-width="0.25"/>
<rect x="432" y="266" width="195" height="6" fill="#d8dee9" stroke="#b9c3d6" stroke-width="0.25"/>
<rect x="628" y="266" width="69" height="6" fill="#bf616a" stroke="#b9c3d6" stroke-width="0.25"/>
<rect x="698" y="266" width="76" height="6" fill="#d8dee9" stroke="#b9c3d6" stroke-width="0.25"/>
<rect x="775" y="266" width="20" height="6" fill="#bf616a" stroke="#b9c3d6" stroke-width="0.25"/>
<rect x="796" y="266" width="20" height="6" fill="#d8dee9" stroke="#b9c3d6" stroke-width="0.25"/>
<rect x="817" y="266" width="6" height="6" fill="#bf616a" stroke="#b9c3d6" stroke-width="0.25"/>
<rect x="432" y="273" width="181" height="6" fill="#d8dee9" stroke="#b9c3d6" stroke-width="0.25"/>
<rect x="614" y="273" width="69" height="6" fill="#bf616a" stroke="#b9c3d6" stroke-width="0.25"/>
<rect x="684" y="273" width="76" height="6" fill="#d8dee9" stroke="#b9c3d6" stroke-width="0.25"/>
<rect x="761" y="273" width="20" height="6" fill="#bf616a" stroke="#b9c3d6" stroke-width="0.25"/>
<rect x="782" y="273" width="20" height="6" fill="#d8dee9" stroke="#b9c3d6" stroke-width="0.25"/>
<rect x="803" y="273" width="20" height="6" fill="#bf616a" stroke="#b9c3d6" stroke-width="0.25"/>
<rect x="432" y="280" width="167" height="6" fill="#d8dee9" stroke="#b9c3d6" stroke-width="0.25"/>
<rect x="600" y="280" width="69" height="6" fill="#bf616a" stroke="#b9c3d6" stroke-width="0.25"/>
<rect x="670" y="280" width="76" height="6" fill="#d8dee9" stroke="#b9c3d6" stroke-width="0.25"/>
<rect x="747" y="280" width="20" height="6" fill="#bf616a" stroke="#b9c3d6" stroke-width="0.25"/>
<rect x="768" y="280" width="20" height="6" fill="#d8dee9" stroke="#b9c3d6" stroke-width="0.25"/>
<rect x="789" y="280" width="34" height="6" fill="#bf616a" stroke="#b9c3d6" stroke-width="0.25"/>
<rect x="432" y="287" width="153" height="6" fill="#d8dee9" stroke="#b9c3d6" stroke-width="0.25"/>
<rect x="586" y="287" width="69" height="6" fill="#bf616a" stroke="#b9c3d6" stroke-width="0.25"/>
<rect x="656" y="287" width="76" height="6" fill="#d8dee9" stroke="#b9c3d6" stroke-width="0.25"/>
<rect x="733" y="287" width="20" height="6" fill="#bf616a" stroke="#b9c3d6" stroke-width="0.25"/>
<rect x="754" y="287" width="20" height="6" fill="#d8dee9" stroke="#b9c3d6" stroke-width="0.25"/>
<rect x="775" y="287" width="48" height="6" fill="#bf616a" stroke="#b9c3d6" stroke-width="0.25"/>
<rect x="432" y="294" width="139" height="6" fill="#d8dee9" stroke="#b9c3d6" stroke-width="0.25"/>
<rect x="572" y="294" width="69" height="6" fill="#bf616a" stroke="#b9c3d6" stroke-width="0.25"/>
<rect x="642" y="294" width="76" height="6" fill="#d8dee9" stroke="#b9c3d6" stroke-width="0.25"/>
<rect x="719" y="294" width="20" height="6" fill="#bf616a" stroke="#b9c3d6" stroke-width="0.25"/>
<rect x="740" y="294" width="20" height="6" fill="#d8dee9" stroke="#b9c3d6" stroke-width="0.25"/>
<rect x="761" y="294" width="48" height="6" fill="#bf616a" stroke="#b9c3d6" stroke-width="0.25"/>
<rect x="810" y="294" width="6" height="6" fill="#d8dee9" stroke="#b9c3d6" stroke-width="0.25"/>
<rect x="817" y="294" width="6" height="6" fill="#bf616a" stroke="#b9c3d6" stroke-width="0.25"/>
<rect x="432" y="301" width="125" height="6" fill="#d8dee9" stroke="#b9c3d6" stroke-width="0.25"/>
<rect x="558" y="301" width="69" height="6" fill="#bf616a" stroke="#b9c3d6" stroke-width="0.25"/>
<rect x="628" y="301" width="76" height="6" fill="#d8dee9" stroke="#b9c3d6" stroke-width="0.25"/>
<rect x="705" y="301" width="20" height="6" fill="#bf616a" stroke="#b9c3d6" stroke-width="0.25"/>
<rect x="726" y="301" width="20" height="6" fill="#d8dee9" stroke="#b9c3d6" stroke-width="0.25"/>
<rect x="747" y="301" width="48" height="6" fill="#bf616a" stroke="#b9c3d6" stroke-width="0.25"/>
<rect x="796" y="301" width="6" height="6" fill="#d8dee9" stroke="#b9c3d6" stroke-width="0.25"/>
<rect x="803" y="301" width="20" height="6" fill="#bf616a" stroke="#b9c3d6" stroke-width="0.25"/>
<rect x="432" y="308" width="111" height="6" fill="#d8dee9" stroke="#b9c3d6" stroke-width="0.25"/>
<rect x="544" y="308" width="69" height="6" fill="#bf616a" stroke="#b9c3d6" stroke-width="0.25"/>
<rect x="614" y="308" width="76" height="6" fill="#d8dee9" stroke="#b9c3d6" stroke-width="0.25"/>
<rect x="691" y="308" width="20" height="6" fill="#bf616a" stroke="#b9c3d6" stroke-width="0.25"/>
<rect x="712" y="308" width="20" height="6" fill="#d8dee9" stroke="#b9c3d6" stroke-width="0.25"/>
<rect x="733" y="308" width="48" height="6" fill="#bf616a" stroke="#b9c3d6" stroke-width="0.25"/>
<rect x="782" y="308" width="6" height="6" fill="#d8dee9" stroke="#b9c3d6" stroke-width="0.25"/>
<rect x="789" y="308" width="20" height="6" fill="#bf616a" stroke="#b9c3d6" stroke-width="0.25"/>
<rect x="810" y="308" width="13" height="6" fill="#d8dee9" stroke="#b9c3d6" stroke-width="0.25"/>
<rect x="432" y="315" width="97" height="6" fill="#d8dee9" stroke="#b9c3d6" stroke-width="0.25"/>
<rect x="530" y="315" width="69" height="6" fill="#bf616a" stroke="#b9c3d6" stroke-width="0.25"/>
<rect x="600" y="315" width="76" height="6" fill="#d8dee9" stroke="#b9c3d6" stroke-width="0.25"/>
<rect x="677" y="315" width="20" height="6" fill="#bf616a" stroke="#b9c3d6" stroke-width="0.25"/>
<rect x="698" y="315" width="20" height="6" fill="#d8dee9" stroke="#b9c3d6" stroke-width="0.25"/>
<rect x="719" y="315" width="48" height="6" fill="#bf616a" stroke="#b9c3d6" stroke-width="0.25"/>
<rect x="768" y="315" width="6" height="6" fill="#d8dee9" stroke="#b9c3d6" stroke-width="0.25"/>
<rect x="775" y="315" width="20" height="6" fill="#bf616a" stroke="#b9c3d6" stroke-width="0.25"/>
<rect x="796" y="315" width="27" height="6" fill="#d8dee9" stroke="#b9c3d6" stroke-width="0.25"/>
<rect x="432" y="322" width="83" height="6" fill="#d8dee9" stroke="#b9c3d6" stroke-width="0.25"/>
<rect x="516" y="322" width="69" height="6" fill="#bf616a" stroke="#b9c3d6" stroke-width="0.25"/>
<rect x="586" y="322" width="76" height="6" fill="#d8dee9" stroke="#b9c3d6" stroke-width="0.25"/>
<rect x="663" y="322" width="27" height="6" fill="#bf616a" stroke="#b9c3d6" stroke-width="0.25"/>
<rect x="691" y="322" width="13" height="6" fill="#d8dee9" stroke="#b9c3d6" stroke-width="0.25"/>
<rect x="705" y="322" width="48" height="6" fill="#bf616a" stroke="#b9c3d6" stroke-width="0.25"/>
<rect x="754" y="322" width="6" height="6" fill="#d8dee9" stroke="#b9c3d6" stroke-width="0.25"/>
<rect x="761" y="322" width="27" height="6" fill="#bf616a" stroke="#b9c3d6" stroke-width="0.25"/>
<rect x="789" y="322" width="34" height="6" fill="#d8dee9" stroke="#b9c3d6" stroke-width="0.25"/>
<rect x="432" y="329" width="69" height="6" fill="#d8dee9" stroke="#b9c3d6" stroke-width="0.25"/>
<rect x="502" y="329" width="69" height="6" fill="#bf616a" stroke="#b9c3d6" stroke-width="0.25"/>
<rect x="572" y="329" width="76" height="6" fill="#d8dee9" stroke="#b9c3d6" stroke-width="0.25"/>
<rect x="649" y="329" width="27" height="6" fill="#bf616a" stroke="#b9c3d6" stroke-width="0.25"/>
<rect x="677" y="329" width="13" height="6" fill="#d8dee9" stroke="#b9c3d6" stroke-width="0.25"/>
<rect x="691" y="329" width="48" height="6" fill="#bf616a" stroke="#b9c3d6" stroke-width="0.25"/>
<rect x="740" y="329" width="6" height="6" fill="#d8dee9" stroke="#b9c3d6" stroke-width="0.25"/>
<rect x="747" y="329" width="27" height="6" fill="#bf616a" stroke="#b9c3d6" stroke-width="0.25"/>
<rect x="775" y="329" width="41" height="6" fill="#d8dee9" stroke="#b9c3d6" stroke-width="0.25"/>
<rect x="817" y="329" width="6" height="6" fill="#bf616a" stroke="#b9c3d6" stroke-width="0.25"/>
<rect x="432" y="336" width="55" height="6" fill="#d8dee9" stroke="#b9c3d6" stroke-width="0.25"/>
<rect x="488" y="336" width="69" height="6" fill="#bf616a" stroke="#b9c3d6" stroke-width="0.25"/>
<rect x="558" y="336" width="76" height="6" fill="#d8dee9" stroke="#b9c3d6" stroke-width="0.25"/>
<rect x="635" y="336" width="27" height="6" fill="#bf616a" stroke="#b9c3d6" stroke-width="0.25"/>
<rect x="663" y="336" width="13" height="6" fill="#d8dee9" stroke="#b9c3d6" stroke-width="0.25"/>
<rect x="677" y="336" width="48" height="6" fill="#bf616a" stroke="#b9c3d6" stroke-width="0.25"/>
<rect x="726" y="336" width="6" height="6" fill="#d8dee9" stroke="#b9c3d6" stroke-width="0.25"/>
<rect x="733" y="336" width="27" height="6" fill="#bf616a" stroke="#b9c3d6" stroke-width="0.25"/>
<rect x="761" y="336" width="41" height="6" fill="#d8dee9" stroke="#b9c3d6" stroke-width="0.25"/>
<rect x="803" y="336" width="20" height="6" fill="#bf616a" stroke="#b9c3d6" stroke-width="0.25"/>
<rect x="432" y="343" width="41" height="6" fill="#d8dee9" stroke="#b9c3d6" stroke-width="0.25"/>
<rect x="474" y="343" width="69" height="6" fill="#bf616a" stroke="#b9c3d6" stroke-width="0.25"/>
<rect x="544" y="343" width="76" height="6" fill="#d8dee9" stroke="#b9c3d6" stroke-width="0.25"/>
<rect x="621" y="343" width="27" height="6" fill="#bf616a" stroke="#b9c3d6" stroke-width="0.25"/>
<rect x="649" y="343" width="13" height="6" fill="#d8dee9" stroke="#b9c3d6" stroke-width="0.25"/>
<rect x="663" y="343" width="48" height="6" fill="#bf616a" stroke="#b9c3d6" stroke-width="0.25"/>
<rect x="712" y="343" width="6" height="6" fill="#d8dee9" stroke="#b9c3d6" stroke-width="0.25"/>
<rect x="719" y="343" width="27" height="6" fill="#bf616a" stroke="#b9c3d6" stroke-width="0.25"/>
<rect x="747" y="343" width="41" height="6" fill="#d8dee9" stroke="#b9c3d6" stroke-width="0.25"/>
<rect x="789" y="343" width="34" height="6" fill="#bf616a" stroke="#b9c3d6" stroke-width="0.25"/>
<rect x="432" y="350" width="27" height="6" fill="#d8dee9" stroke="#b9c3d6" stroke-width="0.25"/>
<rect x="460" y="350" width="69" height="6" fill="#bf616a" stroke="#b9c3d6" stroke-width="0.25"/>
<rect x="530" y="350" width="76" height="6" fill="#d8dee9" stroke="#b9c3d6" stroke-width="0.25"/>
<rect x="607" y="350" width="27" height="6" fill="#bf616a" stroke="#b9c3d6" stroke-width="0.25"/>
<rect x="635" y="350" width="13" height="6" fill="#d8dee9" stroke="#b9c3d6" stroke-width="0.25"/>
<rect x="649" y="350" width="48" height="6" fill="#bf616a" stroke="#b9c3d6" stroke-width="0.25"/>
<rect x="698" y="350" width="6" height="6" fill="#d8dee9" stroke="#b9c3d6" stroke-width="0.25"/>
<rect x="705" y="350" width="27" height="6" fill="#bf616a" stroke="#b9c3d6" stroke-width="0.25"/>
<rect x="733" y="350" width="41" height="6" fill="#d8dee9" stroke="#b9c3d6" stroke-width="0.25"/>
<rect x="775" y="350" width="48" height="6" fill="#bf616a" stroke="#b9c3d6" stroke-width="0.25"/>
<rect x="432" y="357" width="13" height="6" fill="#d8dee9" stroke="#b9c3d6" stroke-width="0.25"/>
<rect x="446" y="357" width="69" height="6" fill="#bf616a" stroke="#b9c3d6" stroke-width="0.25"/>
<rect x="516" y="357" width="76" height="6" fill="#d8dee9" stroke="#b9c3d6" stroke-width="0.25"/>
<rect x="593" y="357" width="27" height="6" fill="#bf616a" stroke="#b9c3d6" stroke-width="0.25"/>
<rect x="621" y="357" width="13" height="6" fill="#d8dee9" stroke="#b9c3d6" stroke-width="0.25"/>
<rect x="635" y="357" width="48" height="6" fill="#bf616a" stroke="#b9c3d6" stroke-width="0.25"/>
<rect x="684" y="357" width="6" height="6" fill="#d8dee9" stroke="#b9c3d6" stroke-width="0.25"/>
<rect x="691" y="357" width="27" height="6" fill="#bf616a" stroke="#b9c3d6" stroke-width="0.25"/>
<rect x="719" y="357" width="41" height="6" fill="#d8dee9" stroke="#b9c3d6" stroke-width="0.25"/>
<rect x="761" y="357" width="62" height="6" fill="#bf616a" stroke="#b9c3d6" stroke-width="0.25"/>
<rect x="432" y="364" width="69" height="6" fill="#bf616a" stroke="#b9c3d6" stroke-width="0.25"/>
<rect x="502" y="364" width="76" height="6" fill="#d8dee9" stroke="#b9c3d6" stroke-width="0.25"/>
<rect x="579" y="364" width="27" height="6" fill="#bf616a" stroke="#b9c3d6" stroke-width="0.25"/>
<rect x="607" y="364" width="13" height="6" fill="#d8dee9" stroke="#b9c3d6" stroke-width="0.25"/>
<rect x="621" y="364" width="48" height="6" fill="#bf616a" stroke="#b9c3d6" stroke-width="0.25"/>
<rect x="670" y="364" width="6" height="6" fill="#d8dee9" stroke="#b9c3d6" stroke-width="0.25"/>
<rect x="677" y="364" width="27" height="6" fill="#bf616a" stroke="#b9c3d6" stroke-width="0.25"/>
<rect x="705" y="364" width="41" height="6" fill="#d8dee9" stroke="#b9c3d6" stroke-width="0.25"/>
<rect x="747" y="364" width="76" height="6" fill="#bf616a" stroke="#b9c3d6" stroke-width="0.25"/>
<rect x="432" y="371" width="55" height="6" fill="#bf616a" stroke="#b9c3d6" stroke-width="0.25"/>
<rect x="488" y="371" width="76" height="6" fill="#d8dee9" stroke="#b9c3d6" stroke-width="0.25"/>
<rect x="565" y="371" width="27" height="6" fill="#bf616a" stroke="#b9c3d6" stroke-width="0.25"/>
<rect x="593" y="371" width="13" height="6" fill="#d8dee9" stroke="#b9c3d6" stroke-width="0.25"/>
<rect x="607" y="371" width="48" height="6" fill="#bf616a" stroke="#b9c3d6" stroke-width="0.25"/>
<rect x="656" y="371" width="6" height="6" fill="#d8dee9" stroke="#b9c3d6" stroke-width="0.25"/>
<rect x="663" y="371" width="27" height="6" fill="#bf616a" stroke="#b9c3d6" stroke-width="0.25"/>
<rect x="691" y="371" width="41" height="6" fill="#d8dee9" stroke="#b9c3d6" stroke-width="0.25"/>
<rect x="733" y="371" width="90" height="6" fill="#bf616a" stroke="#b9c3d6" stroke-width="0.25"/>
<rect x="432" y="378" width="41" height="6" fill="#bf616a" stroke="#b9c3d6" stroke-width="0.25"/>
<rect x="474" y="378" width="76" height="6" fill="#d8dee9" stroke="#b9c3d6" stroke-width="0.25"/>
<rect x="551" y="378" width="27" height="6" fill="#bf616a" stroke="#b9c3d6" stroke-width="0.25"/>
<rect x="579" y="378" width="13" height="6" fill="#d8dee9" stroke="#b9c3d6" stroke-width="0.25"/>
<rect x="593" y="378" width="48" height="6" fill="#bf616a" stroke="#b9c3d6" stroke-width="0.25"/>
<rect x="642" y="378" width="6" height="6" fill="#d8dee9" stroke="#b9c3d6" stroke-width="0.25"/>
<rect x="649" y="378" width="27" height="6" fill="#bf616a" stroke="#b9c3d6" stroke-width="0.25"/>
<rect x="677" y="378" width="41" height="6" fill="#d8dee9" stroke="#b9c3d6" stroke-width="0.25"/>
<rect x="719" y="378" width="97" height="6" fill="#bf616a" stroke="#b9c3d6" stroke-width="0.25"/>
<rect x="817" y="378" width="6" height="6" fill="#d8dee9" stroke="#b9c3d6" stroke-width="0.25"/>
<rect x="432" y="385" width="27" height="6" fill="#bf616a" stroke="#b9c3d6" stroke-width="0.25"/>
<rect x="460" y="385" width="76" height="6" fill="#d8dee9" stroke="#b9c3d6" stroke-width="0.25"/>
<rect x="537" y="385" width="20" height="6" fill="#bf616a" stroke="#b9c3d6" stroke-width="0.25"/>
<rect x="558" y="385" width="20" height="6" fill="#d8dee9" stroke="#b9c3d6" stroke-width="0.25"/>
<rect x="579" y="385" width="48" height="6" fill="#bf616a" stroke="#b9c3d6" stroke-width="0.25"/>
<rect x="628" y="385" width="6" height="6" fill="#d8dee9" stroke="#b9c3d6" stroke-width="0.25"/>
<rect x="635" y="385" width="27" height="6" fill="#bf616a" stroke="#b9c3d6" stroke-width="0.25"/>
<rect x="663" y="385" width="41" height="6" fill="#d8dee9" stroke="#b9c3d6" stroke-width="0.25"/>
<rect x="705" y="385" width="97" height="6" fill="#bf616a" stroke="#b9c3d6" stroke-width="0.25"/>
<rect x="803" y="385" width="6" height="6" fill="#d8dee9" stroke="#b9c3d6" stroke-width="0.25"/>
<rect x="810" y="385" width="13" height="6" fill="#bf616a" stroke="#b9c3d6" stroke-width="0.25"/>
<rect x="432" y="392" width="13" height="6" fill="#bf616a" stroke="#b9c3d6" stroke-width="0.25"/>
<rect x="446" y="392" width="76" height="6" fill="#d8dee9" stroke="#b9c3d6" stroke-width="0.25"/>
<rect x="523" y="392" width="20" height="6" fill="#bf616a" stroke="#b9c3d6" stroke-width="0.25"/>
<rect x="544" y="392" width="20" height="6" fill="#d8dee9" stroke="#b9c3d6" stroke-width="0.25"/>
<rect x="565" y="392" width="48" height="6" fill="#bf616a" stroke="#b9c3d6" stroke-width="0.25"/>
<rect x="614" y="392" width="6" height="6" fill="#d8dee9" stroke="#b9c3d6" stroke-width="0.25"/>
<rect x="621" y="392" width="27" height="6" fill="#bf616a" stroke="#b9c3d6" stroke-width="0.25"/>
<rect x="649" y="392" width="41" height="6" fill="#d8dee9" stroke="#b9c3d6" stroke-width="0.25"/>
<rect x="691" y="392" width="97" height="6" fill="#bf616a" stroke="#b9c3d6" stroke-width="0.25"/>
<rect x="789" y="392" width="6" height="6" fill="#d8dee9" stroke="#b9c3d6" stroke-width="0.25"/>
<rect x="796" y="392" width="20" height="6" fill="#bf616a" stroke="#b9c3d6" stroke-width="0.25"/>
<rect x="817" y="392" width="6" height="6" fill="#d8dee9" stroke="#b9c3d6" stroke-width="0.25"/>
<rect x="432" y="399" width="76" height="6" fill="#d8dee9" stroke="#b9c3d6" stroke-width="0.25"/>
<rect x="509" y="399" width="20" height="6" fill="#bf616a" stroke="#b9c3d6" stroke-width="0.25"/>
<rect x="530" y="399" width="20" height="6" fill="#d8dee9" stroke="#b9c3d6" stroke-width="0.25"/>
<rect x="551" y="399" width="48" height="6" fill="#bf616a" stroke="#b9c3d6" stroke-width="0.25"/>
<rect x="600" y="399" width="6" height="6" fill="#d8dee9" stroke="#b9c3d6" stroke-width="0.25"/>
<rect x="607" y="399" width="27" height="6" fill="#bf616a" stroke="#b9c3d6" stroke-width="0.25"/>
<rect x="635" y="399" width="41" height="6" fill="#d8dee9" stroke="#b9c3d6" stroke-width="0.25"/>
<rect x="677" y="399" width="97" height="6" fill="#bf616a" stroke="#b9c3d6" stroke-width="0.25"/>
<rect x="775" y="399" width="6" height="6" fill="#d8dee9" stroke="#b9c3d6" stroke-width="0.25"/>
<rect x="782" y="399" width="20" height="6" fill="#bf616a" stroke="#b9c3d6" stroke-width="0.25"/>
<rect x="803" y="399" width="20" height="6" fill="#d8dee9" stroke="#b9c3d6" stroke-width="0.25"/>
<rect x="432" y="406" width="62" height="6" fill="#d8dee9" stroke="#b9c3d6" stroke-width="0.25"/>
<rect x="495" y="406" width="20" height="6" fill="#bf616a" stroke="#b9c3d6" stroke-width="0.25"/>
<rect x="516" y="406" width="20" height="6" fill="#d8dee9" stroke="#b9c3d6" stroke-width="0.25"/>
<rect x="537" y="406" width="48" height="6" fill="#bf616a" stroke="#b9c3d6" stroke-width="0.25"/>
<rect x="586" y="406" width="6" height="6" fill="#d8dee9" stroke="#b9c3d6" stroke-width="0.25"/>
<rect x="593" y="406" width="27" height="6" fill="#bf616a" stroke="#b9c3d6" stroke-width="0.25"/>
<rect x="621" y="406" width="41" height="6" fill="#d8dee9" stroke="#b9c3d6" stroke-width="0.25"/>
<rect x="663" y="406" width="97" height="6" fill="#bf616a" stroke="#b9c3d6" stroke-width="0.25"/>
<rect x="761" y="406" width="6" height="6" fill="#d8dee9" stroke="#b9c3d6" stroke-width="0.25"/>
<rect x="768" y="406" width="20" height="6" fill="#bf616a" stroke="#b9c3d6" stroke-width="0.25"/>
<rect x="789" y="406" width="34" height="6" fill="#d8dee9" stroke="#b9c3d6" stroke-width="0.25"/>
<rect x="432" y="413" width="48" height="6" fill="#d8dee9" stroke="#b9c3d6" stroke-width="0.25"/>
<rect x="481" y="413" width="20" height="6" fill="#bf616a" stroke="#b9c3d6" stroke-width="0.25"/>
<rect x="502" y="413" width="20" height="6" fill="#d8dee9" stroke="#b9c3d6" stroke-width="0.25"/>
<rect x="523" y="413" width="48" height="6" fill="#bf616a" stroke="#b9c3d6" stroke-width="0.25"/>
<rect x="572" y="413" width="6" height="6" fill="#d8dee9" stroke="#b9c3d6" stroke-width="0.25"/>
<rect x="579" y="413" width="27" height="6" fill="#bf616a" stroke="#b9c3d6" stroke-width="0.25"/>
<rect x="607" y="413" width="41" height="6" fill="#d8dee9" stroke="#b9c3d6" stroke-width="0.25"/>
<rect x="649" y="413" width="97" height="6" fill="#bf616a" stroke="#b9c3d6" stroke-width="0.25"/>
<rect x="747" y="413" width="6" height="6" fill="#d8dee9" stroke="#b9c3d6" stroke-width="0.25"/>
<rect x="754" y="413" width="20" height="6" fill="#bf616a" stroke="#b9c3d6" stroke-width="0.25"/>
<rect x="775" y="413" width="48" height="6" fill="#d8dee9" stroke="#b9c3d6" stroke-width="0.25"/>
<rect x="432" y="420" width="34" height="6" fill="#d8dee9" stroke="#b9c3d6" stroke-width="0.25"/>
<rect x="467" y="420" width="20" height="6" fill="#bf616a" stroke="#b9c3d6" stroke-width="0.25"/>
<rect x="488" y="420" width="20" height="6" fill="#d8dee9" stroke="#b9c3d6" stroke-width="0.25"/>
<rect x="509" y="420" width="48" height="6" fill="#bf616a" stroke="#b9c3d6" stroke-width="0.25"/>
<rect x="558" y="420" width="6" height="6" fill="#d8dee9" stroke="#b9c3d6" stroke-width="0.25"/>
<rect x="565" y="420" width="27" height="6" fill="#bf616a" stroke="#b9c3d6" stroke-width="0.25"/>
<rect x="593" y="420" width="41" height="6" fill="#d8dee9" stroke="#b9c3d6" stroke-width="0.25"/>
<rect x="635" y="420" width="97" height="6" fill="#bf616a" stroke="#b9c3d6" stroke-width="0.25"/>
<rect x="733" y="420" width="6" height="6" fill="#d8dee9" stroke="#b9c3d6" stroke-width="0.25"/>
<rect x="740" y="420" width="20" height="6" fill="#bf616a" stroke="#b9c3d6" stroke-width="0.25"/>
<rect x="761" y="420" width="48" height="6" fill="#d8dee9" stroke="#b9c3d6" stroke-width="0.25"/>
<rect x="810" y="420" width="13" height="6" fill="#bf616a" stroke="#b9c3d6" stroke-width="0.25"/>
<rect x="432" y="427" width="20" height="6" fill="#d8dee9" stroke="#b9c3d6" stroke-width="0.25"/>
<rect x="453" y="427" width="20" height="6" fill="#bf616a" stroke="#b9c3d6" stroke-width="0.25"/>
<rect x="474" y="427" width="20" height="6" fill="#d8dee9" stroke="#b9c3d6" stroke-width="0.25"/>
<rect x="495" y="427" width="48" height="6" fill="#bf616a" stroke="#b9c3d6" stroke-width="0.25"/>
<rect x="544" y="427" width="6" height="6" fill="#d8dee9" stroke="#b9c3d6" stroke-width="0.25"/>
<rect x="551" y="427" width="27" height="6" fill="#bf616a" stroke="#b9c3d6" stroke-width="0.25"/>
<rect x="579" y="427" width="41" height="6" fill="#d8dee9" stroke="#b9c3d6" stroke-width="0.25"/>
<rect x="621" y="427" width="97" height="6" fill="#bf616a" stroke="#b9c3d6" stroke-width="0.25"/>
<rect x="719" y="427" width="6" height="6" fill="#d8dee9" stroke="#b9c3d6" stroke-width="0.25"/>
<rect x="726" y="427" width="20" height="6" fill="#bf616a" stroke="#b9c3d6" stroke-width="0.25"/>
<rect x="747" y="427" width="48" height="6" fill="#d8dee9" stroke="#b9c3d6" stroke-width="0.25"/>
<rect x="796" y="427" width="27" height="6" fill="#bf616a" stroke="#b9c3d6" stroke-width="0.25"/>
<rect x="432" y="434" width="6" height="6" fill="#d8dee9" stroke="#b9c3d6" stroke-width="0.25"/>
<rect x="439" y="434" width="20" height="6" fill="#bf616a" stroke="#b9c3d6" stroke-width="0.25"/>
<rect x="460" y="434" width="20" height="6" fill="#d8dee9" stroke="#b9c3d6" stroke-width="0.25"/>
<rect x="481" y="434" width="48" height="6" fill="#bf616a" stroke="#b9c3d6" stroke-width="0.25"/>
<rect x="530" y="434" width="6" height="6" fill="#d8dee9" stroke="#b9c3d6" stroke-width="0.25"/>
<rect x="537" y="434" width="20" height="6" fill="#bf616a" stroke="#b9c3d6" stroke-width="0.25"/>
<rect x="558" y="434" width="48" height="6" fill="#d8dee9" stroke="#b9c3d6" stroke-width="0.25"/>
<rect x="607" y="434" width="97" height="6" fill="#bf616a" stroke="#b9c3d6" stroke-width="0.25"/>
<rect x="705" y="434" width="6" height="6" fill="#d8dee9" stroke="#b9c3d6" stroke-width="0.25"/>
<rect x="712" y="434" width="20" height="6" fill="#bf616a" stroke="#b9c3d6" stroke-width="0.25"/>
<rect x="733" y="434" width="48" height="6" fill="#d8dee9" stroke="#b9c3d6" stroke-width="0.25"/>
<rect x="782" y="434" width="41" height="6" fill="#bf616a" stroke="#b9c3d6" stroke-width="0.25"/>
<rect x="432" y="441" width="13" height="6" fill="#bf616a" stroke="#b9c3d6" stroke-width="0.25"/>
<rect x="446" y="441" width="20" height="6" fill="#d8dee9" stroke="#b9c3d6" stroke-width="0.25"/>
<rect x="467" y="441" width="48" height="6" fill="#bf616a" stroke="#b9c3d6" stroke-width="0.25"/>
<rect x="516" y="441" width="6" height="6" fill="#d8dee9" stroke="#b9c3d6" stroke-width="0.25"/>
<rect x="523" y="441" width="20" height="6" fill="#bf616a" stroke="#b9c3d6" stroke-width="0.25"/>
<rect x="544" y="441" width="48" height="6" fill="#d8dee9" stroke="#b9c3d6" stroke-width="0.25"/>
<rect x="593" y="441" width="97" height="6" fill="#bf616a" stroke="#b9c3d6" stroke-width="0.25"/>
<rect x="691" y="441" width="6" height="6" fill="#d8dee9" stroke="#b9c3d6" stroke-width="0.25"/>
<rect x="698" y="441" width="20" height="6" fill="#bf616a" stroke="#b9c3d6" stroke-width="0.25"/>
<rect x="719" y="441" width="48" height="6" fill="#d8dee9" stroke="#b9c3d6" stroke-width="0.25"/>
<rect x="768" y="441" width="55" height="6" fill="#bf616a" stroke="#b9c3d6" stroke-width="0.25"/>
</g>
<text x="424" y="462" text-anchor="middle" fill="#4c566a" font-size="11">Heatmaps — diagonal stripes: structured lift vs noise (open raw SVG if preview is small)</text>
</svg>