<svg xmlns="http://www.w3.org/2000/svg" width="820" height="420" viewBox="0 0 820 420" font-family="system-ui,sans-serif">
<rect width="100%" height="100%" fill="#fafafa"/>
<text x="369" y="26" text-anchor="middle" font-size="15" fill="#222">Quantitative arc (schematic): savings / density scales vs $\log N$</text>
<text x="369" y="44" text-anchor="middle" font-size="10" fill="#666">Illustrative normalization only — not literal constants from any single theorem</text>
<polyline fill="none" stroke="#888" stroke-width="2.2" points="78.0,45.0 80.9,54.4 83.8,63.3 86.8,71.7 89.7,79.8 92.6,87.4 95.5,94.8 98.5,101.7 101.4,108.4 104.3,114.8 107.2,120.9 110.2,126.8 113.1,132.4 116.0,137.8 118.9,143.1 121.9,148.1 124.8,152.9 127.7,157.6 130.6,162.1 133.6,166.4 136.5,170.6 139.4,174.7 142.3,178.6 145.3,182.4 148.2,186.1 151.1,189.7 154.0,193.1 157.0,196.5 159.9,199.8 162.8,203.0 165.7,206.0 168.7,209.0 171.6,212.0 174.5,214.8 177.4,217.6 180.4,220.3 183.3,222.9 186.2,225.4 189.1,227.9 192.1,230.4 195.0,232.8 197.9,235.1 200.8,237.3 203.8,239.6 206.7,241.7 209.6,243.8 212.5,245.9 215.5,247.9 218.4,249.9 221.3,251.8 224.2,253.7 227.2,255.6 230.1,257.4 233.0,259.2 235.9,261.0 238.9,262.7 241.8,264.3 244.7,266.0 247.6,267.6 250.6,269.2 253.5,270.8 256.4,272.3 259.3,273.8 262.3,275.3 265.2,276.7 268.1,278.1 271.0,279.5 273.9,280.9 276.9,282.3 279.8,283.6 282.7,284.9 285.6,286.2 288.6,287.4 291.5,288.7 294.4,289.9 297.3,291.1 300.3,292.3 303.2,293.4 306.1,294.6 309.0,295.7 312.0,296.8 314.9,297.9 317.8,299.0 320.7,300.1 323.7,301.1 326.6,302.2 329.5,303.2 332.4,304.2 335.4,305.2 338.3,306.2 341.2,307.1 344.1,308.1 347.1,309.0 350.0,309.9 352.9,310.8 355.8,311.7 358.8,312.6 361.7,313.5 364.6,314.4 367.5,315.2 370.5,316.1 373.4,316.9 376.3,317.7 379.2,318.5 382.2,319.4 385.1,320.1 388.0,320.9 390.9,321.7 393.9,322.5 396.8,323.2 399.7,324.0 402.6,324.7 405.6,325.4 408.5,326.2 411.4,326.9 414.3,327.6 417.3,328.3 420.2,329.0 423.1,329.6 426.0,330.3 429.0,331.0 431.9,331.6 434.8,332.3 437.7,332.9 440.7,333.6 443.6,334.2 446.5,334.8 449.4,335.5 452.4,336.1 455.3,336.7 458.2,337.3 461.1,337.9 464.1,338.5 467.0,339.0 469.9,339.6 472.8,340.2 475.7,340.8 478.7,341.3 481.6,341.9 484.5,342.4 487.4,343.0 490.4,343.5 493.3,344.0 496.2,344.6 499.1,345.1 502.1,345.6 505.0,346.1 507.9,346.6 510.8,347.1 513.8,347.6 516.7,348.1 519.6,348.6 522.5,349.1 525.5,349.6 528.4,350.1 531.3,350.5 534.2,351.0 537.2,351.5 540.1,351.9 543.0,352.4 545.9,352.8 548.9,353.3 551.8,353.7 554.7,354.2 557.6,354.6 560.6,355.1 563.5,355.5 566.4,355.9 569.3,356.3 572.3,356.8 575.2,357.2 578.1,357.6 581.0,358.0 584.0,358.4 586.9,358.8 589.8,359.2 592.7,359.6 595.7,360.0 598.6,360.4 601.5,360.8 604.4,361.2 607.4,361.6 610.3,361.9 613.2,362.3 616.1,362.7 619.1,363.1 622.0,363.4 624.9,363.8 627.8,364.2 630.8,364.5 633.7,364.9 636.6,365.2 639.5,365.6 642.5,365.9 645.4,366.3 648.3,366.6 651.2,367.0 654.2,367.3 657.1,367.7 660.0,368.0"/>
<polyline fill="none" stroke="#b9770e" stroke-width="2.2" points="78.0,45.0 80.9,50.0 83.8,54.9 86.8,59.6 89.7,64.3 92.6,68.9 95.5,73.3 98.5,77.7 101.4,82.0 104.3,86.2 107.2,90.3 110.2,94.4 113.1,98.3 116.0,102.2 118.9,106.0 121.9,109.7 124.8,113.4 127.7,117.0 130.6,120.5 133.6,124.0 136.5,127.4 139.4,130.7 142.3,134.0 145.3,137.2 148.2,140.4 151.1,143.5 154.0,146.6 157.0,149.6 159.9,152.6 162.8,155.5 165.7,158.4 168.7,161.2 171.6,164.0 174.5,166.7 177.4,169.4 180.4,172.1 183.3,174.7 186.2,177.3 189.1,179.8 192.1,182.3 195.0,184.8 197.9,187.2 200.8,189.6 203.8,192.0 206.7,194.3 209.6,196.6 212.5,198.9 215.5,201.1 218.4,203.3 221.3,205.5 224.2,207.6 227.2,209.8 230.1,211.9 233.0,213.9 235.9,215.9 238.9,218.0 241.8,219.9 244.7,221.9 247.6,223.8 250.6,225.7 253.5,227.6 256.4,229.5 259.3,231.3 262.3,233.1 265.2,234.9 268.1,236.7 271.0,238.4 273.9,240.2 276.9,241.9 279.8,243.6 282.7,245.2 285.6,246.9 288.6,248.5 291.5,250.1 294.4,251.7 297.3,253.3 300.3,254.8 303.2,256.4 306.1,257.9 309.0,259.4 312.0,260.9 314.9,262.4 317.8,263.8 320.7,265.3 323.7,266.7 326.6,268.1 329.5,269.5 332.4,270.9 335.4,272.3 338.3,273.6 341.2,275.0 344.1,276.3 347.1,277.6 350.0,278.9 352.9,280.2 355.8,281.5 358.8,282.7 361.7,284.0 364.6,285.2 367.5,286.4 370.5,287.6 373.4,288.8 376.3,290.0 379.2,291.2 382.2,292.4 385.1,293.5 388.0,294.7 390.9,295.8 393.9,296.9 396.8,298.0 399.7,299.1 402.6,300.2 405.6,301.3 408.5,302.4 411.4,303.4 414.3,304.5 417.3,305.5 420.2,306.5 423.1,307.6 426.0,308.6 429.0,309.6 431.9,310.6 434.8,311.6 437.7,312.5 440.7,313.5 443.6,314.5 446.5,315.4 449.4,316.4 452.4,317.3 455.3,318.2 458.2,319.2 461.1,320.1 464.1,321.0 467.0,321.9 469.9,322.8 472.8,323.6 475.7,324.5 478.7,325.4 481.6,326.2 484.5,327.1 487.4,327.9 490.4,328.8 493.3,329.6 496.2,330.4 499.1,331.3 502.1,332.1 505.0,332.9 507.9,333.7 510.8,334.5 513.8,335.3 516.7,336.0 519.6,336.8 522.5,337.6 525.5,338.4 528.4,339.1 531.3,339.9 534.2,340.6 537.2,341.3 540.1,342.1 543.0,342.8 545.9,343.5 548.9,344.3 551.8,345.0 554.7,345.7 557.6,346.4 560.6,347.1 563.5,347.8 566.4,348.4 569.3,349.1 572.3,349.8 575.2,350.5 578.1,351.1 581.0,351.8 584.0,352.5 586.9,353.1 589.8,353.8 592.7,354.4 595.7,355.0 598.6,355.7 601.5,356.3 604.4,356.9 607.4,357.5 610.3,358.2 613.2,358.8 616.1,359.4 619.1,360.0 622.0,360.6 624.9,361.2 627.8,361.8 630.8,362.4 633.7,362.9 636.6,363.5 639.5,364.1 642.5,364.7 645.4,365.2 648.3,365.8 651.2,366.3 654.2,366.9 657.1,367.5 660.0,368.0"/>
<polyline fill="none" stroke="#1a5276" stroke-width="2.2" points="78.0,45.0 80.9,51.1 83.8,57.0 86.8,62.8 89.7,68.4 92.6,73.9 95.5,79.3 98.5,84.5 101.4,89.7 104.3,94.6 107.2,99.5 110.2,104.3 113.1,108.9 116.0,113.5 118.9,117.9 121.9,122.3 124.8,126.5 127.7,130.7 130.6,134.7 133.6,138.7 136.5,142.6 139.4,146.4 142.3,150.2 145.3,153.8 148.2,157.4 151.1,160.9 154.0,164.4 157.0,167.7 159.9,171.0 162.8,174.3 165.7,177.5 168.7,180.6 171.6,183.6 174.5,186.6 177.4,189.6 180.4,192.5 183.3,195.3 186.2,198.1 189.1,200.8 192.1,203.5 195.0,206.1 197.9,208.7 200.8,211.3 203.8,213.8 206.7,216.2 209.6,218.6 212.5,221.0 215.5,223.3 218.4,225.6 221.3,227.9 224.2,230.1 227.2,232.3 230.1,234.4 233.0,236.5 235.9,238.6 238.9,240.6 241.8,242.6 244.7,244.6 247.6,246.5 250.6,248.4 253.5,250.3 256.4,252.2 259.3,254.0 262.3,255.8 265.2,257.6 268.1,259.3 271.0,261.0 273.9,262.7 276.9,264.3 279.8,266.0 282.7,267.6 285.6,269.2 288.6,270.7 291.5,272.3 294.4,273.8 297.3,275.3 300.3,276.8 303.2,278.2 306.1,279.6 309.0,281.1 312.0,282.4 314.9,283.8 317.8,285.2 320.7,286.5 323.7,287.8 326.6,289.1 329.5,290.4 332.4,291.6 335.4,292.9 338.3,294.1 341.2,295.3 344.1,296.5 347.1,297.7 350.0,298.9 352.9,300.0 355.8,301.1 358.8,302.2 361.7,303.3 364.6,304.4 367.5,305.5 370.5,306.6 373.4,307.6 376.3,308.6 379.2,309.7 382.2,310.7 385.1,311.6 388.0,312.6 390.9,313.6 393.9,314.5 396.8,315.5 399.7,316.4 402.6,317.3 405.6,318.2 408.5,319.1 411.4,320.0 414.3,320.9 417.3,321.8 420.2,322.6 423.1,323.5 426.0,324.3 429.0,325.1 431.9,325.9 434.8,326.7 437.7,327.5 440.7,328.3 443.6,329.1 446.5,329.8 449.4,330.6 452.4,331.4 455.3,332.1 458.2,332.8 461.1,333.5 464.1,334.3 467.0,335.0 469.9,335.7 472.8,336.3 475.7,337.0 478.7,337.7 481.6,338.4 484.5,339.0 487.4,339.7 490.4,340.3 493.3,341.0 496.2,341.6 499.1,342.2 502.1,342.8 505.0,343.4 507.9,344.0 510.8,344.6 513.8,345.2 516.7,345.8 519.6,346.4 522.5,346.9 525.5,347.5 528.4,348.1 531.3,348.6 534.2,349.2 537.2,349.7 540.1,350.2 543.0,350.8 545.9,351.3 548.9,351.8 551.8,352.3 554.7,352.8 557.6,353.3 560.6,353.8 563.5,354.3 566.4,354.8 569.3,355.3 572.3,355.8 575.2,356.2 578.1,356.7 581.0,357.2 584.0,357.6 586.9,358.1 589.8,358.5 592.7,358.9 595.7,359.4 598.6,359.8 601.5,360.3 604.4,360.7 607.4,361.1 610.3,361.5 613.2,361.9 616.1,362.3 619.1,362.7 622.0,363.1 624.9,363.5 627.8,363.9 630.8,364.3 633.7,364.7 636.6,365.1 639.5,365.5 642.5,365.8 645.4,366.2 648.3,366.6 651.2,366.9 654.2,367.3 657.1,367.6 660.0,368.0"/>
<text x="78" y="398" font-size="11" fill="#555">Horizontal: $\log N$</text>
<text x="78" y="412" font-size="10" fill="#888">Vertical: min–max normalized curves for readability</text>
<text x="668" y="67" font-size="11" fill="#888">Shkredov-type scale</text>
<text x="668" y="85" font-size="11" fill="#b9770e">Jaber et al. (2025) regime</text>
<text x="668" y="103" font-size="11" fill="#1a5276">Behrend lower-bound scale</text>
<text x="668" y="121" font-size="9" fill="#999">$\sim 1/\log\log N$</text>
<text x="668" y="135" font-size="9" fill="#999">$\exp(-(\log N)^{0.38})$</text>
<text x="668" y="149" font-size="9" fill="#999">$\exp(-\sqrt{\log N})$</text>
</svg>