<svg xmlns="http://www.w3.org/2000/svg" width="640" height="280" viewBox="0 0 640 280" font-family="system-ui,sans-serif">
<rect width="100%" height="100%" fill="#fafafa"/>
<text x="320" y="20" text-anchor="middle" font-size="14" fill="#222">Axis corner (d = d′) vs skew corner (d ≠ d′)</text>
<rect x="24" y="24" width="34" height="34" fill="#e8e8e8" stroke="#bbb"/>
<rect x="24" y="60" width="34" height="34" fill="#e8e8e8" stroke="#bbb"/>
<rect x="24" y="96" width="34" height="34" fill="#e8e8e8" stroke="#bbb"/>
<rect x="24" y="132" width="34" height="34" fill="#e8e8e8" stroke="#bbb"/>
<rect x="60" y="24" width="34" height="34" fill="#e8e8e8" stroke="#bbb"/>
<rect x="60" y="60" width="34" height="34" fill="#e8e8e8" stroke="#bbb"/>
<rect x="60" y="96" width="34" height="34" fill="#e8e8e8" stroke="#bbb"/>
<rect x="60" y="132" width="34" height="34" fill="#e8e8e8" stroke="#bbb"/>
<rect x="96" y="24" width="34" height="34" fill="#e8e8e8" stroke="#bbb"/>
<rect x="96" y="60" width="34" height="34" fill="#e8e8e8" stroke="#bbb"/>
<rect x="96" y="96" width="34" height="34" fill="#e8e8e8" stroke="#bbb"/>
<rect x="96" y="132" width="34" height="34" fill="#e8e8e8" stroke="#bbb"/>
<rect x="132" y="24" width="34" height="34" fill="#e8e8e8" stroke="#bbb"/>
<rect x="132" y="60" width="34" height="34" fill="#e8e8e8" stroke="#bbb"/>
<rect x="132" y="96" width="34" height="34" fill="#e8e8e8" stroke="#bbb"/>
<rect x="132" y="132" width="34" height="34" fill="#e8e8e8" stroke="#bbb"/>
<circle cx="42" cy="42" r="10" fill="#c0392b" stroke="#922b21"/>
<circle cx="114" cy="42" r="10" fill="#c0392b" stroke="#922b21"/>
<circle cx="42" cy="114" r="10" fill="#c0392b" stroke="#922b21"/>
<text x="24" y="190" font-size="11" fill="#444">Standard corner: (x,y), (x+d,y), (x,y+d)</text>
<rect x="340" y="24" width="34" height="34" fill="#e8e8e8" stroke="#bbb"/>
<rect x="340" y="60" width="34" height="34" fill="#e8e8e8" stroke="#bbb"/>
<rect x="340" y="96" width="34" height="34" fill="#e8e8e8" stroke="#bbb"/>
<rect x="340" y="132" width="34" height="34" fill="#e8e8e8" stroke="#bbb"/>
<rect x="376" y="24" width="34" height="34" fill="#e8e8e8" stroke="#bbb"/>
<rect x="376" y="60" width="34" height="34" fill="#e8e8e8" stroke="#bbb"/>
<rect x="376" y="96" width="34" height="34" fill="#e8e8e8" stroke="#bbb"/>
<rect x="376" y="132" width="34" height="34" fill="#e8e8e8" stroke="#bbb"/>
<rect x="412" y="24" width="34" height="34" fill="#e8e8e8" stroke="#bbb"/>
<rect x="412" y="60" width="34" height="34" fill="#e8e8e8" stroke="#bbb"/>
<rect x="412" y="96" width="34" height="34" fill="#e8e8e8" stroke="#bbb"/>
<rect x="412" y="132" width="34" height="34" fill="#e8e8e8" stroke="#bbb"/>
<rect x="448" y="24" width="34" height="34" fill="#e8e8e8" stroke="#bbb"/>
<rect x="448" y="60" width="34" height="34" fill="#e8e8e8" stroke="#bbb"/>
<rect x="448" y="96" width="34" height="34" fill="#e8e8e8" stroke="#bbb"/>
<rect x="448" y="132" width="34" height="34" fill="#e8e8e8" stroke="#bbb"/>
<circle cx="358" cy="42" r="10" fill="#1a5276" stroke="#0e3a52"/>
<circle cx="430" cy="42" r="10" fill="#1a5276" stroke="#0e3a52"/>
<circle cx="358" cy="150" r="10" fill="#1a5276" stroke="#0e3a52"/>
<text x="340" y="190" font-size="11" fill="#444">Skew corner: (x,y), (x+d,y), (x,y+d′), d ≠ d′</text>
</svg>